<?xml version="1.0" standalone="no"?>
<!DOCTYPE svg PUBLIC "-//W3C//DTD SVG 20010904//EN"
 "http://www.w3.org/TR/2001/REC-SVG-20010904/DTD/svg10.dtd">
<svg version="1.0" xmlns="http://www.w3.org/2000/svg"
 width="82.000000pt" height="81.000000pt" viewBox="0 0 82.000000 81.000000"
 preserveAspectRatio="xMidYMid meet">

<g transform="translate(0.000000,81.000000) scale(0.100000,-0.100000)"
fill="#000000" stroke="none">
<path d="M15 343 l2 -233 27 -35 c53 -69 60 -70 361 -70 l270 0 42 27 c40 27
73 63 73 82 0 5 -13 -5 -28 -22 l-29 -32 -13 25 c-7 13 -17 22 -21 19 -5 -3
-18 1 -30 9 -11 8 -30 13 -42 11 -12 -2 -16 -2 -9 2 18 8 5 24 -21 24 -18 0
-19 2 -7 10 10 6 11 10 3 10 -19 0 -16 21 5 36 15 12 15 12 -5 7 -18 -4 -23
-12 -23 -39 0 -27 -4 -34 -20 -34 -16 0 -20 7 -20 30 0 20 -5 30 -15 30 -10 0
-15 -10 -15 -30 0 -23 -4 -30 -20 -30 -16 0 -20 7 -20 30 0 20 -5 30 -15 30
-10 0 -15 -10 -15 -30 0 -23 -4 -30 -20 -30 -16 0 -20 7 -20 30 0 38 -18 40
-22 3 -2 -17 -10 -29 -20 -31 -15 -3 -18 4 -18 32 0 25 -4 36 -15 36 -11 0
-15 -11 -15 -36 0 -28 -3 -35 -17 -32 -12 2 -19 14 -21 34 -2 22 -11 36 -29
45 -14 8 -32 28 -39 45 -10 23 -19 31 -36 30 -13 -1 -29 2 -36 7 -18 14 4 37
34 37 13 0 24 5 24 10 0 6 -13 10 -29 10 -33 0 -46 22 -30 52 8 15 8 19 0 14
-6 -4 -11 0 -11 9 0 9 -4 13 -10 10 -5 -3 -10 -1 -10 4 0 6 6 11 13 11 8 0 7
4 -3 10 -10 6 -11 10 -2 10 6 0 12 4 12 10 0 5 -7 6 -17 3 -11 -4 -14 -3 -9 5
4 7 2 12 -3 12 -6 0 -11 -6 -11 -14 0 -8 -5 -18 -12 -22 -7 -4 -8 -3 -4 4 5 8
0 12 -13 12 -16 0 -21 8 -24 43 -3 23 -4 -63 -2 -190z m630 -273 c-3 -5 -12
-10 -18 -10 -7 0 -6 4 3 10 19 12 23 12 15 0z"/>
<path d="M128 543 c7 -3 16 -2 19 1 4 3 -2 6 -13 5 -11 0 -14 -3 -6 -6z"/>
<path d="M133 493 c9 -2 17 -8 17 -12 0 -4 7 -8 15 -8 8 0 15 6 15 14 0 8 -12
13 -32 12 -18 -1 -25 -3 -15 -6z"/>
<path d="M144 423 c10 -11 36 -12 36 -2 0 5 -10 9 -22 9 -12 0 -18 -3 -14 -7z"/>
<path d="M411 394 c-6 -15 -9 -29 -7 -32 3 -2 10 8 16 23 6 15 9 29 7 31 -2 2
-9 -8 -16 -22z"/>
<path d="M448 413 c7 -3 16 -2 19 1 4 3 -2 6 -13 5 -11 0 -14 -3 -6 -6z"/>
<path d="M262 353 c-2 -38 -18 -44 -25 -10 -2 12 -5 1 -6 -25 -1 -37 3 -49 18
-58 12 -6 82 -9 173 -8 l153 2 -129 6 c-82 3 -131 9 -133 16 -2 6 6 14 18 17
19 5 20 9 10 21 -7 8 -10 20 -6 26 3 5 1 10 -4 10 -6 0 -11 -9 -11 -20 0 -15
-7 -20 -24 -20 -21 0 -25 5 -29 38 -3 36 -4 36 -5 5z"/>
<path d="M385 339 c-4 -6 -5 -12 -2 -15 2 -3 7 2 10 11 7 17 1 20 -8 4z"/>
<path d="M590 315 c-8 -29 -6 -55 2 -47 5 5 8 20 5 33 -2 13 -5 20 -7 14z"/>
</g>
</svg>
